<?xml version="1.0" encoding="UTF-8"?>
<svg id="Layer_2" data-name="Layer 2" xmlns="http://www.w3.org/2000/svg" viewBox="0 0 544.99 165.27">
  <defs>
    <style>
      .cls-1 {
        fill: #fff;
      }

      .cls-2 {
        fill: #ffea20;
      }

      .cls-3 {
        fill: #515252;
      }
    </style>
  </defs>
  <g id="Layer_3" data-name="Layer 3">
    <g>
      <rect class="cls-1" width="544.99" height="165.27" rx="47.41" ry="47.41"/>
      <g>
        <path class="cls-2" d="m306.19,53.51c3.74,1.3,6.61,3.14,8.63,5.51,2.02,2.37,3.02,5.13,3.02,8.27s-.95,5.84-2.85,8.27c-1.9,2.43-4.45,4.12-7.65,5.07,3.73.83,6.73,2.68,8.98,5.56,2.25,2.88,3.38,6.27,3.38,10.18,0,3.5-1.04,6.58-3.11,9.25-2.08,2.67-5,4.71-8.76,6.14-3.77,1.42-8.17,2.13-13.21,2.13h-33.08v-62.34h31.57c4.98,0,9.34.65,13.07,1.96Zm-10.81,20.81c.86-.83,1.29-1.93,1.29-3.29s-.43-2.36-1.29-3.16c-.86-.8-2-1.2-3.42-1.2h-9.87v8.89h9.87c1.42,0,2.56-.41,3.42-1.24Zm1.16,23.08c1.16-.92,1.73-2.12,1.73-3.6,0-1.36-.58-2.46-1.73-3.29-1.16-.83-2.68-1.24-4.58-1.24h-9.87v9.52h9.87c1.9,0,3.42-.46,4.58-1.38Z"/>
        <path class="cls-2" d="m348.34,95.31c1.78,1.9,3.91,2.85,6.4,2.85s4.45-.93,6.05-2.8,2.4-4.31,2.4-7.34v-36.46h20.63v36.46c0,5.46-1.2,10.24-3.6,14.36-2.4,4.12-5.8,7.31-10.18,9.56-4.39,2.25-9.52,3.38-15.39,3.38s-11.04-1.13-15.52-3.38c-4.48-2.25-7.94-5.44-10.41-9.56-2.46-4.12-3.69-8.91-3.69-14.36v-36.46h20.63v36.46c0,2.97.89,5.4,2.67,7.29Z"/>
        <path class="cls-2" d="m437.54,55.38c5.1,2.55,9.04,6.18,11.83,10.9,2.79,4.71,4.18,10.18,4.18,16.41s-1.42,11.77-4.27,16.45c-2.85,4.68-6.89,8.32-12.14,10.89-5.25,2.58-11.34,3.87-18.28,3.87h-27.04v-62.34h27.84c6.82,0,12.78,1.28,17.88,3.82Zm-8.4,38.42c2.22-2.73,3.34-6.37,3.34-10.94s-1.2-8.33-3.6-11.12c-2.4-2.79-5.62-4.18-9.65-4.18h-6.76v30.33h7.74c3.74,0,6.72-1.36,8.94-4.09Z"/>
        <path class="cls-2" d="m494.73,68.01c-4.15-1.48-7.53-2.22-10.14-2.22s-3.82.92-3.82,2.76c0,1.42.81,2.52,2.45,3.29,1.63.77,4.22,1.63,7.78,2.58,4.45,1.24,8.14,2.49,11.07,3.73,2.94,1.24,5.5,3.22,7.69,5.91,2.19,2.7,3.29,6.24,3.29,10.63s-1.17,8.29-3.51,11.34c-2.34,3.05-5.5,5.32-9.47,6.8-3.97,1.48-8.39,2.22-13.25,2.22-5.51,0-11.07-.91-16.68-2.71-5.6-1.81-10.45-4.28-14.54-7.43l7.65-15.56c3.14,2.73,7.08,5.05,11.83,6.98,4.74,1.93,8.72,2.89,11.92,2.89,1.54,0,2.76-.28,3.65-.84.89-.56,1.33-1.44,1.33-2.62,0-1.42-.85-2.54-2.54-3.33-1.69-.8-4.34-1.65-7.96-2.54-4.39-1.13-8.05-2.3-10.98-3.51-2.94-1.21-5.47-3.1-7.6-5.65-2.13-2.55-3.2-5.96-3.2-10.23s1.1-7.78,3.29-10.89c2.19-3.11,5.31-5.5,9.34-7.16,4.03-1.66,8.72-2.49,14.05-2.49,4.86,0,9.71.68,14.54,2.05,4.83,1.37,9.03,3.17,12.58,5.43l-7.47,15.74c-3.38-1.96-7.15-3.68-11.29-5.16Z"/>
      </g>
      <g>
        <path class="cls-3" d="m41.11,75.12v25.58c0,3.43.66,5.81,1.97,7.12,1.32,1.32,3.26,1.98,5.84,1.98,1.6,0,3.15-.26,4.63-.77v4.72c-1.83.46-3.69.69-5.58.69-3.78,0-6.74-1.06-8.88-3.18-2.15-2.12-3.22-5.29-3.22-9.53v-26.61h-8.5v-4.21h8.5v-11.41l5.24-1.97v13.39h12.7v4.21h-12.7Z"/>
        <path class="cls-3" d="m85.05,70.23l-.26,4.72c-1.09-.23-2.4-.34-3.95-.34-4.35,0-7.6,1.39-9.74,4.16-2.15,2.78-3.22,6.08-3.22,9.91v25.23h-5.15v-31.07c0-4.46-.23-8.44-.69-11.93h4.98l.69,7.98c1.09-2.92,2.85-5.15,5.28-6.69,2.43-1.55,5.19-2.32,8.28-2.32,1.43,0,2.69.12,3.78.34Z"/>
        <path class="cls-3" d="m128.31,70.92v43h-5.24v-8.24c-1.26,2.86-3.16,5.05-5.71,6.57-2.55,1.52-5.59,2.28-9.14,2.28-3.83,0-7.2-.9-10.08-2.7-2.89-1.8-5.12-4.38-6.7-7.72-1.57-3.35-2.36-7.25-2.36-11.72s.8-8.4,2.4-11.8c1.6-3.4,3.85-6.04,6.74-7.9,2.89-1.86,6.22-2.79,10-2.79,3.49,0,6.51.74,9.05,2.23,2.54,1.49,4.48,3.66,5.79,6.52v-7.72h5.24Zm-8.93,34.33c2.46-3.09,3.69-7.44,3.69-13.05s-1.23-10.04-3.69-13.13c-2.46-3.09-5.95-4.64-10.47-4.64s-8.04,1.59-10.56,4.76c-2.52,3.18-3.78,7.57-3.78,13.17s1.26,9.86,3.78,12.92c2.52,3.06,6.06,4.59,10.64,4.59s7.92-1.55,10.38-4.63Z"/>
        <path class="cls-3" d="m173.7,70.92h5.32l-18.45,43h-5.41l-18.19-43h5.58l15.53,37.76,15.62-37.76Z"/>
        <path class="cls-3" d="m189.92,91.78v.26c0,5.78,1.33,10.2,3.99,13.26,2.66,3.06,6.54,4.59,11.63,4.59s9.87-1.77,14.16-5.32l2.06,4.12c-1.89,1.77-4.29,3.19-7.21,4.25-2.92,1.06-5.92,1.59-9.01,1.59-6.52,0-11.67-1.97-15.45-5.92-3.78-3.95-5.67-9.38-5.67-16.31,0-4.41.84-8.31,2.53-11.72,1.69-3.4,4.05-6.04,7.08-7.9,3.03-1.86,6.52-2.79,10.47-2.79,5.66,0,10.08,1.83,13.26,5.49,3.18,3.66,4.76,8.75,4.76,15.28v1.12h-32.61Zm4.98-14.03c-2.46,2.38-4,5.71-4.63,10h27.29c-.34-4.41-1.63-7.77-3.86-10.08s-5.29-3.48-9.18-3.48-7.15,1.19-9.61,3.56Z"/>
        <path class="cls-3" d="m233.78,113.92v-63.17h5.15v63.17h-5.15Z"/>
      </g>
    </g>
  </g>
</svg>